<?xml version="1.0" encoding="UTF-8" standalone="no"?>
<svg
   width="300pt"
   height="42.965439pt"
   viewBox="0 0 299.99999 42.965439"
   version="1.2"
   id="svg4104"
   sodipodi:docname="Friedrich-Alexander-Universität Erlangen-Nürnberg Logo 14.07.2022.svg"
   inkscape:version="1.1.1 (3bf5ae0d25, 2021-09-20)"
   xmlns:inkscape="http://www.inkscape.org/namespaces/inkscape"
   xmlns:sodipodi="http://sodipodi.sourceforge.net/DTD/sodipodi-0.dtd"
   xmlns="http://www.w3.org/2000/svg"
   xmlns:svg="http://www.w3.org/2000/svg">
  <sodipodi:namedview
     id="namedview4106"
     pagecolor="#ffffff"
     bordercolor="#111111"
     borderopacity="1"
     inkscape:pageshadow="0"
     inkscape:pageopacity="0"
     inkscape:pagecheckerboard="1"
     inkscape:document-units="pt"
     showgrid="false"
     inkscape:zoom="3.4674999"
     inkscape:cx="200.00001"
     inkscape:cy="28.695026"
     inkscape:window-width="1600"
     inkscape:window-height="829"
     inkscape:window-x="-8"
     inkscape:window-y="-8"
     inkscape:window-maximized="1"
     inkscape:current-layer="svg4104">
    <inkscape:grid
       type="xygrid"
       id="grid5771"
       originx="-464.24998"
       originy="-250.26722" />
  </sodipodi:namedview>
  <defs
     id="defs775" />
  <path
     style="clip-rule:nonzero;fill:#002e6b;fill-opacity:1;fill-rule:nonzero;stroke:none;stroke-width:0.578641"
     d="m 42.63635,24.16412 h 2.1586 L 50.4593,10.72428 49.38113,8.1633402 Z m 8.89887,-10.88568 -4.58618,10.88568 h 9.1701 z m -9.80525,13.0375 -6.36505,15.06953 H 33.21083 L 49.37662,3.0414702 58.27096,24.16412 h 2.15408 L 50.45479,0.48505023 h 2.15182 L 63.48325,26.31594 Z M 54.75843,0.48505023 71.34237,39.87106 72.70986,38.01082 56.91251,0.48505023 Z m -8.60954,0 L 30.32667,38.01082 31.69642,39.87106 48.30071,0.48505023 Z M 42.97992,28.47003 37.53708,41.38547 h 2.15408 l 2.72142,-6.45772 h 18.2385 l 2.71915,6.45772 h 2.15182 L 61.89651,32.77593 H 43.31897 l 0.90639,-2.15408 H 63.1442 l 4.53194,10.76362 h 2.15182 L 64.38964,28.47003 Z M 4.30591,41.38547 H 6.45773 V 30.62185 h 2.15408 v 8.95763 L 10.76363,37.4254 V 30.62185 H 27.25942 V 28.47003 H 4.30591 Z M 30.50072,19.85822 H 10.76363 v -8.60954 h 17.583 L 30.50072,9.0945902 H 10.76363 v -2.15182 h 21.52726 v -2.15408 H 8.61181 V 22.0123 h 19.7642 z M 6.45773,2.6368702 H 32.29089 V 0.48505023 H 4.30591 V 26.31594 H 27.25942 V 24.16412 H 6.45773 Z M 0,4.4451202 2.15409,2.2910402 V 41.38547 H 0 Z M 91.52473,38.6957 c 6.53684,0 11.12754,-4.8416 11.13207,-11.37392 V 2.2910402 l -2.15182,2.15408 V 25.24004 c 0,4.16123 -3.37466,6.99794 -7.5359,6.99794 -4.50933,0 -7.53363,-2.24902 -7.53363,-6.99794 V 0.48505023 H 83.28362 V 25.24004 c 0,5.96723 3.93747,9.14976 9.68546,9.14976 2.18799,0 4.84385,-1.08044 6.64759,-2.98362 l 0.0497,0.0633 c -1.69297,3.13733 -4.10926,5.07216 -8.14166,5.07216 -5.79319,0 -10.39519,-4.14316 -10.39519,-10.25958 V 0.48507023 H 78.9777 V 26.29788 c 0,7.31891 5.60558,12.39784 12.54701,12.39784 M 109.11449,0.48507023 V 25.24006 c 0,5.76154 -2.56997,10.71164 -8.5666,14.5067 l -0.0475,-0.0633 c 3.93974,-3.12602 6.46225,-7.14034 6.46225,-12.32551 V 0.48505023 h -2.15182 V 27.32178 c 0,7.72803 -6.2656,13.52574 -13.99362,13.52574 -7.72802,0 -13.99136,-5.79771 -13.99136,-13.52574 V 2.2910402 l -2.15408,2.15408 V 27.35795 c 0,8.91695 7.22849,15.60749 16.14544,15.60749 h 2.15182 c 8.78133,0 18.29952,-6.48485 18.29952,-17.69376 V 0.48505023 Z m 0,0"
     id="path1305" />
  <path
     style="fill:#002e6b;fill-opacity:1;stroke:none;stroke-width:0.578641"
     d="m 127.40359,0.48822812 h -5.37051 V 9.0412654 h 1.51893 v -3.64363 h 2.87512 V 4.0143217 h -2.87512 V 1.880583 h 3.85158 z m 0,0"
     id="path558" />
  <path
     style="fill:#002e6b;fill-opacity:1;stroke:none;stroke-width:0.578641"
     d="m 131.30524,2.6942969 c -0.70522,0 -1.2929,0.3526094 -1.61838,0.9402917 h -0.0271 V 2.8570397 h -1.41948 v 6.1842257 h 1.44661 V 5.8677812 c 0,-0.9493329 0.27123,-1.7449643 1.26577,-1.7449643 0.31645,0 0.57864,0.07233 0.80468,0.1898666 l 0.22603,-1.4827676 c -0.21699,-0.099454 -0.47015,-0.135619 -0.6781,-0.135619 z m 0,0"
     id="path562" />
  <path
     style="fill:#002e6b;fill-opacity:1;stroke:none;stroke-width:0.578641"
     d="m 133.91203,0.10849496 c -0.49727,0 -0.90413,0.37973316 -0.90413,0.87700277 0,0.50631087 0.40686,0.87700277 0.90413,0.87700277 0.51535,0 0.93125,-0.3706919 0.93125,-0.87700277 0,-0.49726961 -0.4159,-0.87700277 -0.93125,-0.87700277 z m 0.73234,2.74854474 h -1.4466 v 6.1842257 h 1.4466 z m 0,0"
     id="path567" />
  <path
     style="fill:#002e6b;fill-opacity:1;stroke:none;stroke-width:0.578641"
     d="M 141.64743,8.1642626 140.7433,7.2149297 c -0.48823,0.5153522 -0.94933,0.7323426 -1.51893,0.7323426 -0.877,0 -1.4466,-0.542476 -1.6003,-1.5098914 h 4.14994 c 0.0181,-0.1627428 0.0271,-0.3887744 0.0271,-0.5876823 0,-1.907707 -1.07591,-3.1554017 -2.74854,-3.1554017 -1.71784,0 -2.90225,1.3200248 -2.90225,3.2367731 0,1.9529134 1.22961,3.2548557 3.06499,3.2548557 0.93125,0 1.72688,-0.3254856 2.4321,-1.0216631 z M 139.0345,3.887744 c 0.81372,0 1.31099,0.5515172 1.37428,1.4918088 h -2.81184 c 0.12658,-0.9583741 0.63289,-1.4918088 1.43756,-1.4918088 z m 0,0"
     id="path571" />
  <path
     style="fill:#002e6b;fill-opacity:1;stroke:none;stroke-width:0.578641"
     d="m 145.54182,9.1859257 c 0.7685,0 1.41043,-0.3254856 1.8625,-0.8770028 h 0.0271 v 0.7323425 h 1.41044 V -2.25e-7 l -1.4466,0.361650625 v 3.1734842 h -0.0271 c -0.4159,-0.5063108 -1.02166,-0.8408377 -1.79921,-0.8408377 -1.50989,0 -2.51347,1.2476947 -2.51347,3.2367731 0,2.007161 1.02166,3.2548557 2.48635,3.2548557 z m 0.37973,-5.171604 c 0.58768,0 1.05783,0.2621967 1.47373,0.8227552 v 2.2603164 c -0.45207,0.5424759 -0.91317,0.8137139 -1.47373,0.8137139 -0.91317,0 -1.43756,-0.71426 -1.43756,-1.9800372 0,-1.2386534 0.50631,-1.9167483 1.43756,-1.9167483 z m 0,0"
     id="path576" />
  <path
     style="fill:#002e6b;fill-opacity:1;stroke:none;stroke-width:0.578641"
     d="m 153.77328,2.6942969 c -0.70522,0 -1.2929,0.3526094 -1.61838,0.9402917 h -0.0271 V 2.8570397 h -1.41948 v 6.1842257 h 1.44661 V 5.8677812 c 0,-0.9493329 0.27123,-1.7449643 1.26577,-1.7449643 0.31645,0 0.57864,0.07233 0.80468,0.1898666 l 0.22603,-1.4827676 c -0.21699,-0.099454 -0.47015,-0.135619 -0.6781,-0.135619 z m 0,0"
     id="path580" />
  <path
     style="fill:#002e6b;fill-opacity:1;stroke:none;stroke-width:0.578641"
     d="m 156.38007,0.10849496 c -0.49727,0 -0.90413,0.37973316 -0.90413,0.87700277 0,0.50631087 0.40686,0.87700277 0.90413,0.87700277 0.51535,0 0.93125,-0.3706919 0.93125,-0.87700277 0,-0.49726961 -0.4159,-0.87700277 -0.93125,-0.87700277 z m 0.73234,2.74854474 h -1.4466 v 6.1842257 h 1.4466 z m 0,0"
     id="path585" />
  <path
     style="fill:#002e6b;fill-opacity:1;stroke:none;stroke-width:0.578641"
     d="m 162.89521,7.1968472 c -0.39781,0.4611046 -0.78659,0.6780949 -1.27482,0.6780949 -0.89508,0 -1.51893,-0.7775488 -1.51893,-1.9348308 0,-1.1663233 0.62385,-1.9167483 1.52798,-1.9167483 0.48822,0 0.877,0.2079491 1.24769,0.6780949 l 0.99454,-0.9493329 c -0.53343,-0.6871362 -1.30194,-1.0578281 -2.22415,-1.0578281 -1.79017,0 -2.99266,1.3290661 -2.99266,3.2729382 0,1.9438721 1.19345,3.2186906 2.96553,3.2186906 0.88605,0 1.59127,-0.3164443 2.21511,-0.9945393 z m 0,0"
     id="path589" />
  <path
     style="fill:#002e6b;fill-opacity:1;stroke:none;stroke-width:0.578641"
     d="m 170.41783,5.1987275 c 0,-1.42852 -0.60576,-2.5044306 -2.04333,-2.5044306 -0.81371,0 -1.45564,0.3526094 -1.80825,0.9041266 h -0.0271 V -2.25e-7 l -1.4466,0.361650625 v 8.679615 h 1.4466 V 5.4970893 c 0,-0.7052187 0.29836,-1.5008501 1.2929,-1.5008501 0.85892,0 1.1392,0.5967235 1.1392,1.5098913 v 3.5351349 h 1.4466 z m 0,0"
     id="path594" />
  <path
     style="fill:#002e6b;fill-opacity:1;stroke:none;stroke-width:0.578641"
     d="m 175.11385,4.5567977 h -3.03787 V 5.93107 h 3.03787 z m 0,0"
     id="path598" />
  <path
     style="fill:#002e6b;fill-opacity:1;stroke:none;stroke-width:0.578641"
     d="m 175.86675,9.0412654 h 1.60934 l 0.62385,-1.8263357 h 3.45376 l 0.61481,1.8263357 h 1.66359 l -3.18252,-8.55303728 h -1.60031 z m 3.94199,-6.8171143 h 0.0271 l 1.23866,3.6345888 h -2.50443 z m 0,0"
     id="path603" />
  <path
     style="fill:#002e6b;fill-opacity:1;stroke:none;stroke-width:0.578641"
     d="m 186.5311,0.00904104 -1.4466,0.33452683 V 9.0412654 h 1.4466 z m 0,0"
     id="path607" />
  <path
     style="fill:#002e6b;fill-opacity:1;stroke:none;stroke-width:0.578641"
     d="m 193.58279,8.1642626 -0.90413,-0.9493329 c -0.48823,0.5153522 -0.94933,0.7323426 -1.51893,0.7323426 -0.877,0 -1.4466,-0.542476 -1.6003,-1.5098914 h 4.14994 c 0.0181,-0.1627428 0.0271,-0.3887744 0.0271,-0.5876823 0,-1.907707 -1.07591,-3.1554017 -2.74854,-3.1554017 -1.71784,0 -2.90225,1.3200248 -2.90225,3.2367731 0,1.9529134 1.22961,3.2548557 3.06499,3.2548557 0.93125,0 1.72688,-0.3254856 2.4321,-1.0216631 z M 190.96986,3.887744 c 0.81372,0 1.31099,0.5515172 1.37428,1.4918088 h -2.81184 c 0.12658,-0.9583741 0.63289,-1.4918088 1.43756,-1.4918088 z m 0,0"
     id="path612" />
  <path
     style="fill:#002e6b;fill-opacity:1;stroke:none;stroke-width:0.578641"
     d="m 198.31063,5.8044923 1.94387,-2.9474526 h -1.60935 l -1.14824,1.8986658 h -0.0271 l -1.16632,-1.8986658 h -1.62743 l 1.95291,2.9745764 -2.11565,3.2096493 h 1.62742 l 1.2929,-2.14278 h 0.0181 l 1.32906,2.14278 h 1.65455 z m 0,0"
     id="path616" />
  <path
     style="fill:#002e6b;fill-opacity:1;stroke:none;stroke-width:0.578641"
     d="m 201.18525,7.2149297 c 0,1.2024884 0.80468,1.970996 2.04333,1.970996 0.71426,0 1.27482,-0.2531555 1.80825,-0.8046727 h 0.0271 v 0.6600124 h 1.37427 V 5.0902323 c 0,-1.5822215 -0.90413,-2.3959354 -2.64005,-2.3959354 -0.70522,0 -1.45564,0.135619 -2.02524,0.3526094 l 0.31644,1.2205709 c 0.50631,-0.235073 1.06687,-0.3526094 1.56414,-0.3526094 0.89509,0 1.35619,0.4158982 1.35619,1.2024883 v 0.2169904 c -0.39782,-0.1084952 -0.75947,-0.135619 -1.16632,-0.135619 -1.71784,0 -2.65814,0.7052187 -2.65814,2.0162022 z m 1.38332,-0.036165 c 0,-0.6509711 0.52439,-1.021663 1.43756,-1.021663 0.31644,0 0.66905,0.045206 1.00358,0.1265777 v 1.0849519 c -0.39782,0.479187 -0.88604,0.7413837 -1.4014,0.7413837 -0.63288,0 -1.03974,-0.3526093 -1.03974,-0.9312503 z m 0,0"
     id="path621" />
  <path
     style="fill:#002e6b;fill-opacity:1;stroke:none;stroke-width:0.578641"
     d="m 213.58292,5.1987275 c 0,-1.464685 -0.63289,-2.5044306 -2.04333,-2.5044306 -0.80467,0 -1.45564,0.3526094 -1.82633,0.9041266 h -0.0181 V 2.8570397 h -1.43757 v 6.1842257 h 1.44661 V 5.4970893 c 0,-0.6690537 0.28028,-1.5008501 1.2929,-1.5008501 0.86796,0 1.1392,0.6057648 1.1392,1.5098913 v 3.5351349 h 1.4466 z m 0,0"
     id="path625" />
  <path
     style="fill:#002e6b;fill-opacity:1;stroke:none;stroke-width:0.578641"
     d="m 217.58785,9.1859257 c 0.7685,0 1.41043,-0.3254856 1.8625,-0.8770028 h 0.0271 v 0.7323425 h 1.41044 V -2.25e-7 l -1.4466,0.361650625 v 3.1734842 h -0.0271 c -0.4159,-0.5063108 -1.02166,-0.8408377 -1.79921,-0.8408377 -1.50989,0 -2.51347,1.2476947 -2.51347,3.2367731 0,2.007161 1.02166,3.2548557 2.48635,3.2548557 z m 0.37973,-5.171604 c 0.58768,0 1.05783,0.2621967 1.47373,0.8227552 v 2.2603164 c -0.45207,0.5424759 -0.91317,0.8137139 -1.47373,0.8137139 -0.91317,0 -1.43756,-0.71426 -1.43756,-1.9800372 0,-1.2386534 0.50631,-1.9167483 1.43756,-1.9167483 z m 0,0"
     id="path630" />
  <path
     style="fill:#002e6b;fill-opacity:1;stroke:none;stroke-width:0.578641"
     d="m 227.93494,8.1642626 -0.90413,-0.9493329 c -0.48823,0.5153522 -0.94933,0.7323426 -1.51893,0.7323426 -0.877,0 -1.4466,-0.542476 -1.6003,-1.5098914 h 4.14994 c 0.0181,-0.1627428 0.0271,-0.3887744 0.0271,-0.5876823 0,-1.907707 -1.07591,-3.1554017 -2.74854,-3.1554017 -1.71784,0 -2.90225,1.3200248 -2.90225,3.2367731 0,1.9529134 1.22961,3.2548557 3.06499,3.2548557 0.93125,0 1.72688,-0.3254856 2.4321,-1.0216631 z M 225.32201,3.887744 c 0.81372,0 1.31099,0.5515172 1.37428,1.4918088 h -2.81184 c 0.12658,-0.9583741 0.63289,-1.4918088 1.43756,-1.4918088 z m 0,0"
     id="path634" />
  <path
     style="fill:#002e6b;fill-opacity:1;stroke:none;stroke-width:0.578641"
     d="m 232.72133,2.6942969 c -0.70522,0 -1.2929,0.3526094 -1.61838,0.9402917 h -0.0271 V 2.8570397 h -1.41948 v 6.1842257 h 1.44661 V 5.8677812 c 0,-0.9493329 0.27123,-1.7449643 1.26577,-1.7449643 0.31645,0 0.57864,0.07233 0.80468,0.1898666 l 0.22603,-1.4827676 c -0.21699,-0.099454 -0.47015,-0.135619 -0.6781,-0.135619 z m 0,0"
     id="path639" />
  <path
     style="fill:#002e6b;fill-opacity:1;stroke:none;stroke-width:0.578641"
     d="m 237.34149,4.5567977 h -3.03787 V 5.93107 h 3.03787 z m 0,0"
     id="path643" />
  <path
     style="fill:#002e6b;fill-opacity:1;stroke:none;stroke-width:0.578641"
     d="M 245.85525,0.48822812 H 244.3092 V 5.5694194 c 0,1.292901 -0.49727,2.1608625 -1.76305,2.1608625 -1.25674,0 -1.81729,-0.8770028 -1.81729,-2.1608625 V 0.48822812 h -1.5551 V 5.6507908 c 0,2.0794911 1.03974,3.5351349 3.32718,3.5351349 2.29649,0 3.35431,-1.4646851 3.35431,-3.5351349 z m 0,0"
     id="path648" />
  <path
     style="fill:#002e6b;fill-opacity:1;stroke:none;stroke-width:0.578641"
     d="m 253.08731,5.1987275 c 0,-1.464685 -0.63289,-2.5044306 -2.04333,-2.5044306 -0.80467,0 -1.45564,0.3526094 -1.82633,0.9041266 h -0.0181 V 2.8570397 H 247.762 v 6.1842257 h 1.44661 V 5.4970893 c 0,-0.6690537 0.28028,-1.5008501 1.2929,-1.5008501 0.86796,0 1.1392,0.6057648 1.1392,1.5098913 v 3.5351349 h 1.4466 z m 0,0"
     id="path652" />
  <path
     style="fill:#002e6b;fill-opacity:1;stroke:none;stroke-width:0.578641"
     d="m 255.60891,0.10849496 c -0.49727,0 -0.90413,0.37973316 -0.90413,0.87700277 0,0.50631087 0.40686,0.87700277 0.90413,0.87700277 0.51535,0 0.93125,-0.3706919 0.93125,-0.87700277 0,-0.49726961 -0.4159,-0.87700277 -0.93125,-0.87700277 z m 0.73234,2.74854474 h -1.4466 v 6.1842257 h 1.4466 z m 0,0"
     id="path657" />
  <path
     style="fill:#002e6b;fill-opacity:1;stroke:none;stroke-width:0.578641"
     d="m 262.0127,2.8570397 -1.41947,4.493509 h -0.0181 l -1.42852,-4.493509 h -1.59126 l 2.25128,6.1842257 h 1.50085 l 2.25127,-6.1842257 z m 0,0"
     id="path661" />
  <path
     style="fill:#002e6b;fill-opacity:1;stroke:none;stroke-width:0.578641"
     d="m 269.7117,8.1642626 -0.90413,-0.9493329 c -0.48823,0.5153522 -0.94933,0.7323426 -1.51893,0.7323426 -0.877,0 -1.4466,-0.542476 -1.6003,-1.5098914 h 4.14994 c 0.0181,-0.1627428 0.0271,-0.3887744 0.0271,-0.5876823 0,-1.907707 -1.07591,-3.1554017 -2.74854,-3.1554017 -1.71784,0 -2.90225,1.3200248 -2.90225,3.2367731 0,1.9529134 1.22961,3.2548557 3.06499,3.2548557 0.93125,0 1.72688,-0.3254856 2.4321,-1.0216631 z M 267.09877,3.887744 c 0.81372,0 1.31099,0.5515172 1.37428,1.4918088 h -2.81184 c 0.12658,-0.9583741 0.63289,-1.4918088 1.43756,-1.4918088 z m 0,0"
     id="path666" />
  <path
     style="fill:#002e6b;fill-opacity:1;stroke:none;stroke-width:0.578641"
     d="m 274.5102,2.6942969 c -0.70522,0 -1.2929,0.3526094 -1.61838,0.9402917 h -0.0271 V 2.8570397 h -1.41948 v 6.1842257 h 1.44661 V 5.8677812 c 0,-0.9493329 0.27123,-1.7449643 1.26577,-1.7449643 0.31645,0 0.57864,0.07233 0.80468,0.1898666 l 0.22603,-1.4827676 c -0.21699,-0.099454 -0.47015,-0.135619 -0.6781,-0.135619 z m 0,0"
     id="path670" />
  <path
     style="fill:#002e6b;fill-opacity:1;stroke:none;stroke-width:0.578641"
     d="m 275.85799,8.4355006 c 0.71426,0.4972696 1.5551,0.7504251 2.37785,0.7504251 1.42852,0 2.3869,-0.7865902 2.3869,-1.9529134 0,-2.0794911 -3.09212,-1.7268818 -3.09212,-2.7395035 0,-0.3345268 0.35261,-0.5695997 0.88605,-0.5695997 0.47918,0 0.94933,0.1808253 1.48276,0.5515172 l 0.68714,-1.1301582 c -0.66001,-0.4249395 -1.4014,-0.6509712 -2.14278,-0.6509712 -1.38331,0 -2.33265,0.7775489 -2.33265,1.9257896 0,2.0614086 3.10116,1.6907167 3.10116,2.7485448 0,0.3706919 -0.37973,0.614806 -0.91317,0.614806 -0.54247,0 -1.1392,-0.2260316 -1.74496,-0.6961774 z m 0,0"
     id="path675" />
  <path
     style="fill:#002e6b;fill-opacity:1;stroke:none;stroke-width:0.578641"
     d="m 282.87677,0.10849496 c -0.49727,0 -0.90413,0.37973316 -0.90413,0.87700277 0,0.50631087 0.40686,0.87700277 0.90413,0.87700277 0.51535,0 0.93125,-0.3706919 0.93125,-0.87700277 0,-0.49726961 -0.4159,-0.87700277 -0.93125,-0.87700277 z m 0.73234,2.74854474 h -1.4466 v 6.1842257 h 1.4466 z m 0,0"
     id="path679" />
  <path
     style="fill:#002e6b;fill-opacity:1;stroke:none;stroke-width:0.578641"
     d="m 287.8792,7.9201485 c -0.47919,0 -0.66906,-0.2441142 -0.66906,-0.8137139 V 4.059528 h 1.46469 V 2.8570397 h -1.46469 V 0.84987874 l -1.4466,0.31644426 v 1.6907167 h -0.94029 V 4.059528 h 0.94933 v 3.3904746 c 0,1.1301583 0.59673,1.7359231 1.69072,1.7359231 0.42494,0 0.89509,-0.081371 1.21153,-0.2260317 V 7.7212406 c -0.24411,0.1175365 -0.53344,0.1989079 -0.79563,0.1989079 z m 0,0"
     id="path684" />
  <path
     style="fill:#002e6b;fill-opacity:1;stroke:none;stroke-width:0.578641"
     d="m 292.13226,1.0578279 c 0,-0.45206333 -0.40685,-0.84987902 -0.86796,-0.84987902 -0.4611,0 -0.85892,0.39781569 -0.85892,0.84987902 0,0.4520632 0.39782,0.8408377 0.85892,0.8408377 0.46111,0 0.86796,-0.3887745 0.86796,-0.8408377 z m 2.52252,0 c 0,-0.45206333 -0.39782,-0.84987902 -0.85892,-0.84987902 -0.46111,0 -0.86796,0.39781569 -0.86796,0.84987902 0,0.4520632 0.40685,0.8408377 0.86796,0.8408377 0.4611,0 0.85892,-0.3887745 0.85892,-0.8408377 z m -4.87325,6.1571018 c 0,1.2024884 0.80468,1.970996 2.04333,1.970996 0.71426,0 1.27482,-0.2531555 1.80825,-0.8046727 h 0.0271 v 0.6600124 h 1.37427 V 5.0902323 c 0,-1.5822215 -0.90413,-2.3959354 -2.64005,-2.3959354 -0.70522,0 -1.45564,0.135619 -2.02524,0.3526094 l 0.31644,1.2205709 c 0.50631,-0.235073 1.06687,-0.3526094 1.56414,-0.3526094 0.89509,0 1.35619,0.4158982 1.35619,1.2024883 v 0.2169904 c -0.39782,-0.1084952 -0.75947,-0.135619 -1.16632,-0.135619 -1.71784,0 -2.65814,0.7052187 -2.65814,2.0162022 z m 1.38332,-0.036165 c 0,-0.6509711 0.52439,-1.021663 1.43756,-1.021663 0.31644,0 0.66905,0.045206 1.00358,0.1265777 v 1.0849519 c -0.39782,0.479187 -0.88604,0.7413837 -1.4014,0.7413837 -0.63288,0 -1.03974,-0.3526093 -1.03974,-0.9312503 z m 0,0"
     id="path688" />
  <path
     style="fill:#002e6b;fill-opacity:1;stroke:none;stroke-width:0.578641"
     d="m 299.20438,7.9201485 c -0.47919,0 -0.66906,-0.2441142 -0.66906,-0.8137139 V 4.059528 h 1.46469 V 2.8570397 h -1.46469 V 0.84987874 l -1.4466,0.31644426 v 1.6907167 h -0.94029 V 4.059528 h 0.94933 v 3.3904746 c 0,1.1301583 0.59673,1.7359231 1.69072,1.7359231 0.42494,0 0.89509,-0.081371 1.21153,-0.2260317 V 7.7212406 c -0.24411,0.1175365 -0.53344,0.1989079 -0.79563,0.1989079 z m 0,0"
     id="path693" />
  <path
     style="fill:#002e6b;fill-opacity:1;stroke:none;stroke-width:0.578641"
     d="m 127.62058,21.024315 h -4.07761 v -2.368811 h 2.98362 v -1.374273 h -2.98362 v -2.043326 h 3.92391 v -1.383313 h -5.4338 v 8.553037 h 5.5875 z m 0,0"
     id="path697" />
  <path
     style="fill:#002e6b;fill-opacity:1;stroke:none;stroke-width:0.578641"
     d="m 132.16798,16.060661 c -0.70522,0 -1.2929,0.352609 -1.61838,0.940291 h -0.0271 v -0.777549 h -1.41948 v 6.184226 h 1.44661 v -3.173484 c 0,-0.949333 0.27123,-1.744965 1.26577,-1.744965 0.31645,0 0.57864,0.07233 0.80468,0.189867 l 0.22603,-1.482767 c -0.21699,-0.09945 -0.47015,-0.135619 -0.6781,-0.135619 z m 0,0"
     id="path702" />
  <path
     style="fill:#002e6b;fill-opacity:1;stroke:none;stroke-width:0.578641"
     d="m 135.5071,13.375405 -1.4466,0.334526 v 8.697698 h 1.4466 z m 0,0"
     id="path706" />
  <path
     style="fill:#002e6b;fill-opacity:1;stroke:none;stroke-width:0.578641"
     d="m 137.00124,20.581293 c 0,1.202489 0.80468,1.970996 2.04333,1.970996 0.71426,0 1.27482,-0.253155 1.80825,-0.804672 h 0.0271 v 0.660012 h 1.37427 v -3.951033 c 0,-1.582222 -0.90413,-2.395935 -2.64005,-2.395935 -0.70522,0 -1.45564,0.135619 -2.02524,0.352609 l 0.31644,1.220571 c 0.50631,-0.235073 1.06687,-0.35261 1.56414,-0.35261 0.89509,0 1.35619,0.415899 1.35619,1.202489 v 0.21699 c -0.39782,-0.108495 -0.75947,-0.135619 -1.16632,-0.135619 -1.71784,0 -2.65814,0.705219 -2.65814,2.016202 z m 1.38332,-0.03617 c 0,-0.650971 0.52439,-1.021663 1.43756,-1.021663 0.31644,0 0.66905,0.04521 1.00358,0.126578 v 1.084952 c -0.39782,0.479187 -0.88604,0.741384 -1.4014,0.741384 -0.63288,0 -1.03974,-0.35261 -1.03974,-0.931251 z m 0,0"
     id="path711" />
  <path
     style="fill:#002e6b;fill-opacity:1;stroke:none;stroke-width:0.578641"
     d="m 149.3989,18.565091 c 0,-1.464685 -0.63289,-2.50443 -2.04333,-2.50443 -0.80467,0 -1.45564,0.352609 -1.82633,0.904126 h -0.0181 v -0.741384 h -1.43757 v 6.184226 h 1.44661 v -3.544176 c 0,-0.669054 0.28028,-1.50085 1.2929,-1.50085 0.86796,0 1.1392,0.605765 1.1392,1.509891 v 3.535135 h 1.4466 z m 0,0"
     id="path715" />
  <path
     style="fill:#002e6b;fill-opacity:1;stroke:none;stroke-width:0.578641"
     d="m 152.68646,24.903018 0.3074,-0.01808 c 2.68526,-0.108495 3.70692,-1.103035 3.70692,-3.110196 v -5.551337 h -1.41948 v 0.705219 h -0.0271 c -0.4159,-0.551517 -1.08495,-0.867961 -1.82634,-0.867961 -1.50085,0 -2.51347,1.292901 -2.51347,3.245814 0,1.907707 0.95837,3.137319 2.45922,3.137319 0.74139,0 1.42852,-0.307403 1.87155,-0.85892 h 0.009 v 0.397816 c 0,1.166323 -0.55152,1.690716 -2.39594,1.763046 l -0.31644,0.009 z m 1.09399,-7.540415 c 0.56056,0 1.04879,0.280279 1.47373,0.813714 v 2.21511 c -0.45207,0.542476 -0.91317,0.813714 -1.45565,0.813714 -0.91316,0 -1.4466,-0.71426 -1.4466,-1.934831 0,-1.21153 0.53344,-1.907707 1.42852,-1.907707 z m 0,0"
     id="path720" />
  <path
     style="fill:#002e6b;fill-opacity:1;stroke:none;stroke-width:0.578641"
     d="m 163.73877,21.530626 -0.90413,-0.949333 c -0.48823,0.515352 -0.94933,0.732343 -1.51893,0.732343 -0.877,0 -1.4466,-0.542476 -1.6003,-1.509892 h 4.14994 c 0.0181,-0.162742 0.0271,-0.388774 0.0271,-0.587682 0,-1.907707 -1.07591,-3.155401 -2.74854,-3.155401 -1.71784,0 -2.90225,1.320024 -2.90225,3.236773 0,1.952913 1.22961,3.254855 3.06499,3.254855 0.93125,0 1.72688,-0.325485 2.4321,-1.021663 z m -2.61293,-4.276518 c 0.81372,0 1.31099,0.551517 1.37428,1.491808 h -2.81184 c 0.12658,-0.958374 0.63289,-1.491808 1.43756,-1.491808 z m 0,0"
     id="path724" />
  <path
     style="fill:#002e6b;fill-opacity:1;stroke:none;stroke-width:0.578641"
     d="m 170.78549,18.565091 c 0,-1.464685 -0.63289,-2.50443 -2.04333,-2.50443 -0.80467,0 -1.45564,0.352609 -1.82633,0.904126 h -0.0181 v -0.741384 h -1.43757 v 6.184226 h 1.44661 v -3.544176 c 0,-0.669054 0.28028,-1.50085 1.2929,-1.50085 0.86796,0 1.1392,0.605765 1.1392,1.509891 v 3.535135 h 1.4466 z m 0,0"
     id="path729" />
  <path
     style="fill:#002e6b;fill-opacity:1;stroke:none;stroke-width:0.578641"
     d="m 175.4784,17.923161 h -3.03787 v 1.374273 h 3.03787 z m 0,0"
     id="path733" />
  <path
     style="fill:#002e6b;fill-opacity:1;stroke:none;stroke-width:0.578641"
     d="m 177.34655,22.407629 h 1.48277 l -0.0271,-6.0034 h 0.0271 l 3.81541,6.0034 h 1.50989 v -8.553037 h -1.47373 l 0.0362,5.967235 h -0.0271 l -3.79734,-5.967235 h -1.54605 z m 0,0"
     id="path738" />
  <path
     style="fill:#002e6b;fill-opacity:1;stroke:none;stroke-width:0.578641"
     d="m 188.38137,14.424191 c 0,-0.452063 -0.40685,-0.849879 -0.86796,-0.849879 -0.4611,0 -0.85892,0.397816 -0.85892,0.849879 0,0.452064 0.39782,0.840838 0.85892,0.840838 0.46111,0 0.86796,-0.388774 0.86796,-0.840838 z m 2.52252,0 c 0,-0.452063 -0.39782,-0.849879 -0.85892,-0.849879 -0.46111,0 -0.86796,0.397816 -0.86796,0.849879 0,0.452064 0.40685,0.840838 0.86796,0.840838 0.4611,0 0.85892,-0.388774 0.85892,-0.840838 z m -3.33623,1.799212 h -1.4466 v 3.770208 c 0,1.609345 1.02166,2.558678 2.70334,2.558678 1.7088,0 2.61292,-0.949333 2.61292,-2.57676 v -3.752126 h -1.4466 v 3.706919 c 0,0.877003 -0.40686,1.310984 -1.20249,1.310984 -0.79563,0 -1.22057,-0.452064 -1.22057,-1.301943 z m 0,0"
     id="path742" />
  <path
     style="fill:#002e6b;fill-opacity:1;stroke:none;stroke-width:0.578641"
     d="m 196.32769,16.060661 c -0.70522,0 -1.2929,0.352609 -1.61838,0.940291 h -0.0271 v -0.777549 h -1.41948 v 6.184226 h 1.44661 v -3.173484 c 0,-0.949333 0.27123,-1.744965 1.26577,-1.744965 0.31645,0 0.57864,0.07233 0.80468,0.189867 l 0.22603,-1.482767 c -0.21699,-0.09945 -0.47015,-0.135619 -0.6781,-0.135619 z m 0,0"
     id="path747" />
  <path
     style="fill:#002e6b;fill-opacity:1;stroke:none;stroke-width:0.578641"
     d="m 203.53366,18.565091 c 0,-1.464685 -0.63289,-2.50443 -2.04333,-2.50443 -0.80467,0 -1.45564,0.352609 -1.82633,0.904126 h -0.0181 v -0.741384 h -1.43757 v 6.184226 h 1.44661 v -3.544176 c 0,-0.669054 0.28028,-1.50085 1.2929,-1.50085 0.86796,0 1.1392,0.605765 1.1392,1.509891 v 3.535135 h 1.4466 z m 0,0"
     id="path751" />
  <path
     style="fill:#002e6b;fill-opacity:1;stroke:none;stroke-width:0.578641"
     d="m 208.64444,16.060661 c -0.75946,0 -1.39235,0.334526 -1.80825,0.877002 h -0.0271 v -3.5713 l -1.4466,0.361651 v 8.679615 h 1.39235 v -0.71426 h 0.0181 c 0.4159,0.533435 1.05783,0.85892 1.83538,0.85892 1.51893,0 2.53155,-1.283859 2.53155,-3.281979 0,-2.007161 -1.01262,-3.209649 -2.49539,-3.209649 z m -0.36165,5.207769 c -0.59672,0 -1.05782,-0.298362 -1.47372,-0.840838 v -2.260317 c 0.45206,-0.560558 0.90412,-0.804672 1.46468,-0.804672 0.92221,0 1.44661,0.669053 1.44661,1.943872 0,1.238653 -0.49727,1.961955 -1.43757,1.961955 z m 0,0"
     id="path755" />
  <path
     style="fill:#002e6b;fill-opacity:1;stroke:none;stroke-width:0.578641"
     d="m 217.88571,21.530626 -0.90413,-0.949333 c -0.48823,0.515352 -0.94933,0.732343 -1.51893,0.732343 -0.877,0 -1.4466,-0.542476 -1.6003,-1.509892 h 4.14994 c 0.0181,-0.162742 0.0271,-0.388774 0.0271,-0.587682 0,-1.907707 -1.07591,-3.155401 -2.74854,-3.155401 -1.71784,0 -2.90225,1.320024 -2.90225,3.236773 0,1.952913 1.22961,3.254855 3.06499,3.254855 0.93125,0 1.72688,-0.325485 2.4321,-1.021663 z m -2.61293,-4.276518 c 0.81372,0 1.31099,0.551517 1.37428,1.491808 h -2.81184 c 0.12658,-0.958374 0.63289,-1.491808 1.43756,-1.491808 z m 0,0"
     id="path759" />
  <path
     style="fill:#002e6b;fill-opacity:1;stroke:none;stroke-width:0.578641"
     d="m 222.67207,16.060661 c -0.70522,0 -1.2929,0.352609 -1.61838,0.940291 h -0.0271 v -0.777549 h -1.41948 v 6.184226 h 1.44661 v -3.173484 c 0,-0.949333 0.27123,-1.744965 1.26577,-1.744965 0.31645,0 0.57864,0.07233 0.80468,0.189867 l 0.22603,-1.482767 c -0.21699,-0.09945 -0.47015,-0.135619 -0.6781,-0.135619 z m 0,0"
     id="path763" />
  <path
     style="fill:#002e6b;fill-opacity:1;stroke:none;stroke-width:0.578641"
     d="m 225.93548,24.903018 0.3074,-0.01808 c 2.68526,-0.108495 3.70692,-1.103035 3.70692,-3.110196 v -5.551337 h -1.41948 v 0.705219 h -0.0271 c -0.4159,-0.551517 -1.08495,-0.867961 -1.82634,-0.867961 -1.50085,0 -2.51347,1.292901 -2.51347,3.245814 0,1.907707 0.95837,3.137319 2.45922,3.137319 0.74139,0 1.42852,-0.307403 1.87155,-0.85892 h 0.009 v 0.397816 c 0,1.166323 -0.55152,1.690716 -2.39594,1.763046 l -0.31644,0.009 z m 1.09399,-7.540415 c 0.56056,0 1.04879,0.280279 1.47373,0.813714 v 2.21511 c -0.45207,0.542476 -0.91317,0.813714 -1.45565,0.813714 -0.91316,0 -1.4466,-0.71426 -1.4466,-1.934831 0,-1.21153 0.53344,-1.907707 1.42852,-1.907707 z m 0,0"
     id="path767" />
</svg>
